# xmcd
#
# Track frame offsets:
#	225
#	12424
#	31045
#	42112
#	57351
#	69342
#	85417
#	97983
#	113082
#	129902
#	142222
#	157278
#	168422
#	184196
#	205811
#	218652
#	238688
#	255270
#
# Disc length: 3567 seconds
#
# Revision: 1
# Processed by: cddbd v1.5.1PL2 Copyright (c) Steve Scherf et al.
# Submitted via: audiograbber 1.82.01
#
DISCID=f50dec12
DTITLE=Varius - The Cream Of New Country Music
DYEAR=1997
DGENRE=Country
TTITLE0=Katy Moffat - Junkyard Heart
TTITLE1=Tom Pacheco - If That The Way You Want It
TTITLE2=Quartette - Unbashedly Blues
TTITLE3=Andrew Hardin - Big Big Country
TTITLE4=Steve Young - Goin' Back To California
TTITLE5=Quartette - Denim Blue Eyes
TTITLE6=Coyotes - Fire In My Soul
TTITLE7=Katy Moffat - Amalia's Railroad Flat
TTITLE8=Matt Manning - The Rain Still Pouring Down
TTITLE9=Sylvia Tyson - Feeling Seventeen Again
TTITLE10=Katy Moffat - Hellbound Heart
TTITLE11=John B. Spencer - Don't Drive The Blues From My Heart
TTITLE12=Josie Kuhn - I Ain't Over You
TTITLE13=Coyotes - Your Play Too Rough
TTITLE14=Andrew Hardin - Minnewaska
TTITLE15=Matt Manning - Ballad Of Billy
TTITLE16=Tom Pacheco - Jesus In A Leather Jacket
TTITLE17=Quartette - Papere's Mill
EXTD=
EXTT0=
EXTT1=
EXTT2=
EXTT3=
EXTT4=
EXTT5=
EXTT6=
EXTT7=
EXTT8=
EXTT9=
EXTT10=
EXTT11=
EXTT12=
EXTT13=
EXTT14=
EXTT15=
EXTT16=
EXTT17=
PLAYORDER=
